<svg xmlns="http://www.w3.org/2000/svg" version="1.1" xmlns:xlink="http://www.w3.org/1999/xlink" viewBox="0 0 200 200"><rect width="200" height="200" fill="url('#gradient')"></rect><defs><linearGradient id="gradient" gradientTransform="rotate(0 0.5 0.5)"><stop offset="0%" stop-color="#acb2ff"></stop><stop offset="100%" stop-color="#f3a4a4"></stop></linearGradient></defs><g><g fill="#bf67a4" transform="matrix(3.0827490592196476,0,0,3.0827490592196476,20.693739849719748,115.33726131535917)" stroke="#000000" stroke-width="0"><path d="M8.94 0L5.91-5.29L4.50-3.75L4.50 0L1.07 0L1.07-14.22L4.50-14.22L4.50-7.95L5.69-9.76L8.76-14.22L13.00-14.22L8.19-7.93L13.00 0L8.94 0ZM18.54-7.40L18.54-4.85L12.68-4.85L12.68-7.40L18.54-7.40ZM27.03 0L21.26 0L21.26-14.22L26.37-14.22Q29.11-14.22 30.54-13.21Q31.97-12.21 31.97-10.29L31.97-10.29Q31.97-9.19 31.46-8.41Q30.96-7.63 29.97-7.26L29.97-7.26Q31.08-6.96 31.68-6.16Q32.28-5.36 32.28-4.21L32.28-4.21Q32.28-2.12 30.95-1.07Q29.63-0.02 27.03 0L27.03 0ZM27.09-6.04L24.69-6.04L24.69-2.64L26.93-2.64Q27.86-2.64 28.36-3.06Q28.86-3.49 28.86-4.26L28.86-4.26Q28.86-6.04 27.09-6.04L27.09-6.04ZM24.69-11.57L24.69-8.29L26.47-8.29Q27.60-8.30 28.08-8.70Q28.55-9.10 28.55-9.88L28.55-9.88Q28.55-10.78 28.04-11.18Q27.52-11.57 26.37-11.57L26.37-11.57L24.69-11.57ZM34.55-13.19L37.84-13.19L37.84-10.57L39.58-10.57L39.58-8.28L37.84-8.28L37.84-3.45Q37.84-2.85 38.06-2.62Q38.27-2.38 38.91-2.38L38.91-2.38Q39.39-2.38 39.73-2.44L39.73-2.44L39.73-0.09Q38.84 0.20 37.87 0.20L37.87 0.20Q36.17 0.20 35.36-0.61Q34.55-1.41 34.55-3.04L34.55-3.04L34.55-8.28L33.20-8.28L33.20-10.57L34.55-10.57L34.55-13.19ZM43.43-10.57L45.10-4.61L46.86-10.57L50.38-10.57L46.07 1.77L45.89 2.22Q44.97 4.27 42.65 4.27L42.65 4.27Q42.00 4.27 41.29 4.07L41.29 4.07L41.29 1.72L41.72 1.72Q42.41 1.72 42.78 1.52Q43.14 1.32 43.32 0.80L43.32 0.80L43.58 0.10L39.91-10.57L43.43-10.57Z"></path></g></g></svg>